<?xml version="1.0" encoding="UTF-8" standalone="no"?>
<!DOCTYPE svg PUBLIC "-//W3C//DTD SVG 1.1//EN"
 "http://www.w3.org/Graphics/SVG/1.1/DTD/svg11.dtd">
<!-- Generated by graphviz version 2.40.1 (20161225.0304)
 -->
<!-- Title: 1 Pages: 1 -->
<svg width="313pt" height="295pt"
 viewBox="0.00 0.00 312.95 294.87" xmlns="http://www.w3.org/2000/svg" xmlns:xlink="http://www.w3.org/1999/xlink">
<g id="graph0" class="graph" transform="scale(1 1) rotate(0) translate(4 290.865)">
<title>1</title>
<polygon fill="#ffffff" stroke="transparent" points="-4,4 -4,-290.865 308.9495,-290.865 308.9495,4 -4,4"/>
<!-- E1 -->
<g id="node1" class="node">
<title>E1</title>
</g>
<!-- 1 -->
<g id="node5" class="node">
<title>1</title>
<ellipse fill="#000000" stroke="#000000" cx="130.2794" cy="-197.0337" rx="1.8" ry="1.8"/>
</g>
<!-- E1&#45;&#45;1 -->
<g id="edge5" class="edge">
<title>E1&#45;&#45;1</title>
<path fill="none" stroke="#000000" d="M108.2682,-250.739C115.7632,-232.4519 126.632,-205.933 129.5406,-198.8362"/>
<text text-anchor="middle" x="103.819" y="-244.339" font-family="Arial" font-size="8.00" fill="#000000">p1</text>
</g>
<!-- E2 -->
<g id="node2" class="node">
<title>E2</title>
</g>
<!-- 2 -->
<g id="node6" class="node">
<title>2</title>
<ellipse fill="#000000" stroke="#000000" cx="98.7317" cy="-121.1901" rx="1.8" ry="1.8"/>
</g>
<!-- E2&#45;&#45;2 -->
<g id="edge6" class="edge">
<title>E2&#45;&#45;2</title>
<path fill="none" stroke="#000000" d="M54.1187,-102.7352C71.2579,-109.8251 91.2354,-118.0891 97.0599,-120.4985"/>
<text text-anchor="middle" x="58.5679" y="-105.5344" font-family="Arial" font-size="8.00" fill="#000000">p2</text>
</g>
<!-- E3 -->
<g id="node3" class="node">
<title>E3</title>
</g>
<!-- 3 -->
<g id="node7" class="node">
<title>3</title>
<ellipse fill="#000000" stroke="#000000" cx="174.5674" cy="-89.644" rx="1.8" ry="1.8"/>
</g>
<!-- E3&#45;&#45;3 -->
<g id="edge7" class="edge">
<title>E3&#45;&#45;3</title>
<path fill="none" stroke="#000000" d="M196.8922,-36.0788C189.2904,-54.3181 178.2668,-80.7679 175.3167,-87.8462"/>
<text text-anchor="middle" x="192.443" y="-38.878" font-family="Arial" font-size="8.00" fill="#000000">p3</text>
</g>
<!-- E4 -->
<g id="node4" class="node">
<title>E4</title>
</g>
<!-- 4 -->
<g id="node8" class="node">
<title>4</title>
<ellipse fill="#000000" stroke="#000000" cx="206.1196" cy="-165.4856" rx="1.8" ry="1.8"/>
</g>
<!-- E4&#45;&#45;4 -->
<g id="edge8" class="edge">
<title>E4&#45;&#45;4</title>
<path fill="none" stroke="#000000" d="M250.7937,-183.7794C233.631,-176.7513 213.6263,-168.5595 207.7938,-166.1711"/>
<text text-anchor="middle" x="246.3445" y="-186.5786" font-family="Arial" font-size="8.00" fill="#000000">p4</text>
</g>
<!-- 1&#45;&#45;2 -->
<g id="edge1" class="edge">
<title>1&#45;&#45;2</title>
<path fill="none" stroke="#000000" d="M129.4996,-195.1589C125.1349,-184.6658 103.7775,-133.3206 99.4843,-122.9993"/>
<text text-anchor="middle" x="111.1599" y="-161.8783" font-family="Arial" font-size="8.00" fill="#000000">m</text>
</g>
<!-- 2&#45;&#45;3 -->
<g id="edge2" class="edge">
<title>2&#45;&#45;3</title>
<path fill="none" stroke="#000000" d="M100.6063,-120.4103C111.0983,-116.0458 162.4382,-94.6895 172.7584,-90.3965"/>
<text text-anchor="middle" x="134.4577" y="-108.2026" font-family="Arial" font-size="8.00" fill="#000000">0</text>
</g>
<!-- 3&#45;&#45;4 -->
<g id="edge3" class="edge">
<title>3&#45;&#45;4</title>
<path fill="none" stroke="#000000" d="M175.3474,-91.5187C179.7127,-102.0116 201.0731,-153.3554 205.367,-163.6763"/>
<text text-anchor="middle" x="188.1326" y="-130.3968" font-family="Arial" font-size="8.00" fill="#000000">0</text>
</g>
<!-- 4&#45;&#45;1 -->
<g id="edge4" class="edge">
<title>4&#45;&#45;1</title>
<path fill="none" stroke="#000000" d="M204.2449,-166.2654C193.7523,-170.6302 142.4094,-191.9878 132.0886,-196.2811"/>
<text text-anchor="middle" x="165.9421" y="-184.0725" font-family="Arial" font-size="8.00" fill="#000000">0</text>
</g>
</g>
</svg>
